<mxfile host="app.diagrams.net" modified="2023-12-20T14:05:10.382Z" agent="Mozilla/5.0 (Windows NT 10.0; Win64; x64) AppleWebKit/537.36 (KHTML, like Gecko) Chrome/118.0.5993.771 YaBrowser/23.11.2.771 Yowser/2.5 Safari/537.36" etag="rxRnygdzuwKXpZKM_8a0" version="22.1.11" type="device">
  <diagram name="Страница — 1" id="LGUD6qhmJhBzkxLMAAoH">
    <mxGraphModel dx="660" dy="377" grid="1" gridSize="10" guides="1" tooltips="1" connect="1" arrows="1" fold="1" page="1" pageScale="1" pageWidth="827" pageHeight="1169" math="0" shadow="0">
      <root>
        <mxCell id="0" />
        <mxCell id="1" parent="0" />
        <mxCell id="uFWnFBS086z3aYGwaoIZ-31" style="edgeStyle=orthogonalEdgeStyle;rounded=0;orthogonalLoop=1;jettySize=auto;html=1;entryX=0;entryY=0.5;entryDx=0;entryDy=0;" edge="1" parent="1" source="uFWnFBS086z3aYGwaoIZ-1" target="uFWnFBS086z3aYGwaoIZ-4">
          <mxGeometry relative="1" as="geometry" />
        </mxCell>
        <mxCell id="uFWnFBS086z3aYGwaoIZ-1" value="&amp;amp;" style="rounded=0;whiteSpace=wrap;html=1;" vertex="1" parent="1">
          <mxGeometry x="60" y="320" width="60" height="60" as="geometry" />
        </mxCell>
        <mxCell id="uFWnFBS086z3aYGwaoIZ-2" value="" style="rounded=0;whiteSpace=wrap;html=1;" vertex="1" parent="1">
          <mxGeometry x="60" y="320" width="20" height="60" as="geometry" />
        </mxCell>
        <mxCell id="uFWnFBS086z3aYGwaoIZ-3" value="" style="endArrow=classic;html=1;rounded=0;" edge="1" parent="1">
          <mxGeometry width="50" height="50" relative="1" as="geometry">
            <mxPoint x="20" y="350" as="sourcePoint" />
            <mxPoint x="60" y="349.65999999999997" as="targetPoint" />
          </mxGeometry>
        </mxCell>
        <mxCell id="uFWnFBS086z3aYGwaoIZ-32" style="edgeStyle=orthogonalEdgeStyle;rounded=0;orthogonalLoop=1;jettySize=auto;html=1;entryX=0;entryY=0.5;entryDx=0;entryDy=0;" edge="1" parent="1" source="uFWnFBS086z3aYGwaoIZ-4" target="uFWnFBS086z3aYGwaoIZ-7">
          <mxGeometry relative="1" as="geometry" />
        </mxCell>
        <mxCell id="uFWnFBS086z3aYGwaoIZ-4" value="Формирование содержания задачи" style="rounded=0;whiteSpace=wrap;html=1;" vertex="1" parent="1">
          <mxGeometry x="190" y="240" width="120" height="60" as="geometry" />
        </mxCell>
        <mxCell id="uFWnFBS086z3aYGwaoIZ-5" value="" style="rounded=0;whiteSpace=wrap;html=1;" vertex="1" parent="1">
          <mxGeometry x="250" y="290" width="60" height="10" as="geometry" />
        </mxCell>
        <mxCell id="uFWnFBS086z3aYGwaoIZ-6" value="&lt;font style=&quot;font-size: 9px;&quot;&gt;1&lt;/font&gt;" style="rounded=0;whiteSpace=wrap;html=1;strokeWidth=1;" vertex="1" parent="1">
          <mxGeometry x="190" y="290" width="60" height="10" as="geometry" />
        </mxCell>
        <mxCell id="uFWnFBS086z3aYGwaoIZ-33" style="edgeStyle=orthogonalEdgeStyle;rounded=0;orthogonalLoop=1;jettySize=auto;html=1;entryX=0;entryY=0.5;entryDx=0;entryDy=0;" edge="1" parent="1" source="uFWnFBS086z3aYGwaoIZ-7" target="uFWnFBS086z3aYGwaoIZ-10">
          <mxGeometry relative="1" as="geometry" />
        </mxCell>
        <mxCell id="uFWnFBS086z3aYGwaoIZ-7" value="Формирование списка исполнителей" style="rounded=0;whiteSpace=wrap;html=1;" vertex="1" parent="1">
          <mxGeometry x="370" y="240" width="120" height="60" as="geometry" />
        </mxCell>
        <mxCell id="uFWnFBS086z3aYGwaoIZ-8" value="" style="rounded=0;whiteSpace=wrap;html=1;" vertex="1" parent="1">
          <mxGeometry x="430" y="290" width="60" height="10" as="geometry" />
        </mxCell>
        <mxCell id="uFWnFBS086z3aYGwaoIZ-9" value="&lt;font style=&quot;font-size: 9px;&quot;&gt;2&lt;/font&gt;" style="rounded=0;whiteSpace=wrap;html=1;strokeWidth=1;" vertex="1" parent="1">
          <mxGeometry x="370" y="290" width="60" height="10" as="geometry" />
        </mxCell>
        <mxCell id="uFWnFBS086z3aYGwaoIZ-10" value="Формирование сроков выполнения" style="rounded=0;whiteSpace=wrap;html=1;" vertex="1" parent="1">
          <mxGeometry x="530" y="240" width="120" height="60" as="geometry" />
        </mxCell>
        <mxCell id="uFWnFBS086z3aYGwaoIZ-11" value="" style="rounded=0;whiteSpace=wrap;html=1;" vertex="1" parent="1">
          <mxGeometry x="590" y="290" width="60" height="10" as="geometry" />
        </mxCell>
        <mxCell id="uFWnFBS086z3aYGwaoIZ-12" value="&lt;font style=&quot;font-size: 9px;&quot;&gt;3&lt;/font&gt;" style="rounded=0;whiteSpace=wrap;html=1;strokeWidth=1;" vertex="1" parent="1">
          <mxGeometry x="530" y="290" width="60" height="10" as="geometry" />
        </mxCell>
        <mxCell id="uFWnFBS086z3aYGwaoIZ-35" style="edgeStyle=orthogonalEdgeStyle;rounded=0;orthogonalLoop=1;jettySize=auto;html=1;entryX=0;entryY=0.5;entryDx=0;entryDy=0;" edge="1" parent="1" source="uFWnFBS086z3aYGwaoIZ-22" target="uFWnFBS086z3aYGwaoIZ-25">
          <mxGeometry relative="1" as="geometry" />
        </mxCell>
        <mxCell id="uFWnFBS086z3aYGwaoIZ-22" value="Вступление в должность" style="rounded=0;whiteSpace=wrap;html=1;" vertex="1" parent="1">
          <mxGeometry x="190" y="390" width="120" height="60" as="geometry" />
        </mxCell>
        <mxCell id="uFWnFBS086z3aYGwaoIZ-23" value="" style="rounded=0;whiteSpace=wrap;html=1;" vertex="1" parent="1">
          <mxGeometry x="250" y="440" width="60" height="10" as="geometry" />
        </mxCell>
        <mxCell id="uFWnFBS086z3aYGwaoIZ-24" value="&lt;font style=&quot;font-size: 9px;&quot;&gt;4&lt;/font&gt;" style="rounded=0;whiteSpace=wrap;html=1;strokeWidth=1;" vertex="1" parent="1">
          <mxGeometry x="190" y="440" width="60" height="10" as="geometry" />
        </mxCell>
        <mxCell id="uFWnFBS086z3aYGwaoIZ-25" value="Получение должностных инструкций" style="rounded=0;whiteSpace=wrap;html=1;" vertex="1" parent="1">
          <mxGeometry x="370" y="390" width="120" height="60" as="geometry" />
        </mxCell>
        <mxCell id="uFWnFBS086z3aYGwaoIZ-26" value="" style="rounded=0;whiteSpace=wrap;html=1;" vertex="1" parent="1">
          <mxGeometry x="430" y="440" width="60" height="10" as="geometry" />
        </mxCell>
        <mxCell id="uFWnFBS086z3aYGwaoIZ-27" value="&lt;font style=&quot;font-size: 9px;&quot;&gt;5&lt;/font&gt;" style="rounded=0;whiteSpace=wrap;html=1;strokeWidth=1;" vertex="1" parent="1">
          <mxGeometry x="370" y="440" width="60" height="10" as="geometry" />
        </mxCell>
        <mxCell id="uFWnFBS086z3aYGwaoIZ-41" style="edgeStyle=orthogonalEdgeStyle;rounded=0;orthogonalLoop=1;jettySize=auto;html=1;" edge="1" parent="1" source="uFWnFBS086z3aYGwaoIZ-28">
          <mxGeometry relative="1" as="geometry">
            <mxPoint x="730" y="350" as="targetPoint" />
            <Array as="points">
              <mxPoint x="680" y="420" />
              <mxPoint x="680" y="350" />
            </Array>
          </mxGeometry>
        </mxCell>
        <mxCell id="uFWnFBS086z3aYGwaoIZ-28" value="Получение задачи" style="rounded=0;whiteSpace=wrap;html=1;" vertex="1" parent="1">
          <mxGeometry x="530" y="390" width="120" height="60" as="geometry" />
        </mxCell>
        <mxCell id="uFWnFBS086z3aYGwaoIZ-29" value="" style="rounded=0;whiteSpace=wrap;html=1;" vertex="1" parent="1">
          <mxGeometry x="590" y="440" width="60" height="10" as="geometry" />
        </mxCell>
        <mxCell id="uFWnFBS086z3aYGwaoIZ-30" value="&lt;font style=&quot;font-size: 9px;&quot;&gt;6&lt;/font&gt;" style="rounded=0;whiteSpace=wrap;html=1;strokeWidth=1;" vertex="1" parent="1">
          <mxGeometry x="530" y="440" width="60" height="10" as="geometry" />
        </mxCell>
        <mxCell id="uFWnFBS086z3aYGwaoIZ-34" style="edgeStyle=orthogonalEdgeStyle;rounded=0;orthogonalLoop=1;jettySize=auto;html=1;entryX=-0.02;entryY=0.447;entryDx=0;entryDy=0;entryPerimeter=0;exitX=1;exitY=0.5;exitDx=0;exitDy=0;" edge="1" parent="1" source="uFWnFBS086z3aYGwaoIZ-1" target="uFWnFBS086z3aYGwaoIZ-22">
          <mxGeometry relative="1" as="geometry">
            <Array as="points">
              <mxPoint x="170" y="350" />
              <mxPoint x="170" y="417" />
            </Array>
          </mxGeometry>
        </mxCell>
        <mxCell id="uFWnFBS086z3aYGwaoIZ-36" style="edgeStyle=orthogonalEdgeStyle;rounded=0;orthogonalLoop=1;jettySize=auto;html=1;entryX=0;entryY=0.5;entryDx=0;entryDy=0;" edge="1" parent="1" source="uFWnFBS086z3aYGwaoIZ-25" target="uFWnFBS086z3aYGwaoIZ-28">
          <mxGeometry relative="1" as="geometry" />
        </mxCell>
        <mxCell id="uFWnFBS086z3aYGwaoIZ-46" style="edgeStyle=orthogonalEdgeStyle;rounded=0;orthogonalLoop=1;jettySize=auto;html=1;entryX=0;entryY=0.5;entryDx=0;entryDy=0;" edge="1" parent="1" source="uFWnFBS086z3aYGwaoIZ-38" target="uFWnFBS086z3aYGwaoIZ-43">
          <mxGeometry relative="1" as="geometry" />
        </mxCell>
        <mxCell id="uFWnFBS086z3aYGwaoIZ-38" value="" style="rounded=0;whiteSpace=wrap;html=1;" vertex="1" parent="1">
          <mxGeometry x="730" y="320" width="50" height="60" as="geometry" />
        </mxCell>
        <mxCell id="uFWnFBS086z3aYGwaoIZ-39" value="&amp;amp;" style="rounded=0;whiteSpace=wrap;html=1;" vertex="1" parent="1">
          <mxGeometry x="745" y="320" width="20" height="60" as="geometry" />
        </mxCell>
        <mxCell id="uFWnFBS086z3aYGwaoIZ-40" style="edgeStyle=orthogonalEdgeStyle;rounded=0;orthogonalLoop=1;jettySize=auto;html=1;entryX=0;entryY=0.5;entryDx=0;entryDy=0;" edge="1" parent="1" source="uFWnFBS086z3aYGwaoIZ-10" target="uFWnFBS086z3aYGwaoIZ-38">
          <mxGeometry relative="1" as="geometry" />
        </mxCell>
        <mxCell id="uFWnFBS086z3aYGwaoIZ-43" value="Исполнение задачи" style="rounded=0;whiteSpace=wrap;html=1;" vertex="1" parent="1">
          <mxGeometry x="827" y="320" width="120" height="60" as="geometry" />
        </mxCell>
        <mxCell id="uFWnFBS086z3aYGwaoIZ-44" value="" style="rounded=0;whiteSpace=wrap;html=1;" vertex="1" parent="1">
          <mxGeometry x="887" y="370" width="60" height="10" as="geometry" />
        </mxCell>
        <mxCell id="uFWnFBS086z3aYGwaoIZ-45" value="&lt;font style=&quot;font-size: 9px;&quot;&gt;7&lt;/font&gt;" style="rounded=0;whiteSpace=wrap;html=1;strokeWidth=1;" vertex="1" parent="1">
          <mxGeometry x="827" y="370" width="60" height="10" as="geometry" />
        </mxCell>
      </root>
    </mxGraphModel>
  </diagram>
</mxfile>
